<?xml version="1.0" encoding="utf-8"?>
<!-- Generator: Adobe Illustrator 20.0.0, SVG Export Plug-In . SVG Version: 6.00 Build 0)  -->
<svg version="1.1" id="Layer_1" xmlns="http://www.w3.org/2000/svg" xmlns:xlink="http://www.w3.org/1999/xlink" x="0px" y="0px"
	 viewBox="0 0 32 32" style="enable-background:new 0 0 32 32;" xml:space="preserve">
<style type="text/css">
	.st0{fill:#333333;}
</style>
<g>
	<path class="st0" d="M17,2C8.7,2,2,8.7,2,17s6.7,15,15,15s15-6.7,15-15S25.3,2,17,2z M24.2,15.2l-6.5,6.5C17.5,21.9,17.3,22,17,22
		c-0.3,0-0.5-0.1-0.7-0.3l-6.5-6.5c-0.4-0.4-0.4-1,0-1.4s1-0.4,1.4,0l5.8,5.8l5.8-5.8c0.4-0.4,1-0.4,1.4,0
		C24.6,14.2,24.6,14.8,24.2,15.2z"/>
</g>
</svg>
