<?xml version="1.0" encoding="utf-8"?>
<!-- Generator: Adobe Illustrator 20.0.0, SVG Export Plug-In . SVG Version: 6.00 Build 0)  -->
<svg version="1.1" id="Layer_1" xmlns="http://www.w3.org/2000/svg" xmlns:xlink="http://www.w3.org/1999/xlink" x="0px" y="0px"
	 viewBox="0 0 32 32" style="enable-background:new 0 0 32 32;" xml:space="preserve">
<g>
	<path d="M17,32c8.3,0,15-6.7,15-15S25.3,2,17,2S2,8.7,2,17S8.7,32,17,32z M9.8,18.8l6.5-6.5c0.2-0.2,0.5-0.3,0.7-0.3
		c0.3,0,0.5,0.1,0.7,0.3l6.5,6.5c0.4,0.4,0.4,1,0,1.4c-0.4,0.4-1,0.4-1.4,0L17,14.4l-5.8,5.8c-0.4,0.4-1,0.4-1.4,0
		C9.4,19.8,9.4,19.2,9.8,18.8z"/>
</g>
</svg>
